<svg xmlns="http://www.w3.org/2000/svg" width="198" height="198" stroke="#000" stroke-linecap="round" stroke-linejoin="round" fill="#fff" fill-rule="evenodd"><style><![CDATA[.B{stroke-opacity:0}]]></style><g fill="#dadada" stroke="#dadada" class="B"><path d="M-.5-.5h6v6h-6zm12 0h6v6h-6zm12 0h6v6h-6zm12 0h6v6h-6zm12 0h6v6h-6zm12 0h6v6h-6zm-60 12h6v6h-6zm12 0h6v6h-6zm12 0h6v6h-6zm12 0h6v6h-6zm12 0h6v6h-6zm12 0h6v6h-6zm-60 12h6v6h-6zm0 12h6v6h-6zm0 12h6v6h-6zm0 12h6v6h-6zm12-36h6v6h-6zm0 12h6v6h-6zm0 12h6v6h-6zm0 12h6v6h-6z"/><path d="M5.5 5.5h6v6h-6zm0 12h6v6h-6zm0 12h6v6h-6zm0 12h6v6h-6zm0 12h6v6h-6zm12-48h6v6h-6zm12 0h6v6h-6zm12 0h6v6h-6zm12 0h6v6h-6zm144 192h-6v-6h6zm-12 0h-6v-6h6zm-12 0h-6v-6h6zm-12 0h-6v-6h6zm-12 0h-6v-6h6zm-12 0h-6v-6h6zm60-12h-6v-6h6zm-12 0h-6v-6h6zm-12 0h-6v-6h6zm-12 0h-6v-6h6zm-12 0h-6v-6h6zm-12 0h-6v-6h6zm60-12h-6v-6h6zm0-12h-6v-6h6zm0-12h-6v-6h6zm0-12h-6v-6h6zm-12 36h-6v-6h6zm0-12h-6v-6h6zm0-12h-6v-6h6z"/><path d="M185.5 137.5h-6v-6h6zm6 54h-6v-6h6zm0-12h-6v-6h6zm0-12h-6v-6h6z"/><path d="M191.5 155.5h-6v-6h6zm0-12h-6v-6h6zm-12 48h-6v-6h6zm-12 0h-6v-6h6zm-12 0h-6v-6h6zm-12 0h-6v-6h6zm-144 6v-6h6v6zm0-12v-6h6v6zm0-12v-6h6v6zm0-12v-6h6v6zm0-12v-6h6v6zm0-12v-6h6v6zm12 60v-6h6v6zm0-12v-6h6v6zm0-12v-6h6v6zm0-12v-6h6v6zm0-12v-6h6v6zm0-12v-6h6v6zm12 60v-6h6v6zm12 0v-6h6v6zm12 0v-6h6v6zm12 0v-6h6v6zm-36-12v-6h6v6zm12 0v-6h6v6z"/><path d="M47.5 185.5v-6h6v6zm12 0v-6h6v6zm-54 6v-6h6v6zm12 0v-6h6v6z"/><path d="M29.5 191.5v-6h6v6zm12 0v-6h6v6zm12 0v-6h6v6zm-48-12v-6h6v6zm0-12v-6h6v6zm0-12v-6h6v6zm0-12v-6h6v6zm66 54v-6h6v6zm12 0v-6h6v6zm12 0v-6h6v6zm12 0v-6h6v6zm-36-12v-6h6v6zm12 0v-6h6v6zm12 0v-6h6v6z"/><path d="M107.5 185.5v-6h6v6zm-30 6v-6h6v6z"/><path d="M89.5 191.5v-6h6v6zm12 0v-6h6v6zm-36 0v-6h6v6zm54 6v-6h6v6zm0-12v-6h6v6z"/><path d="M113.5 191.5v-6h6v6zm12 0v-6h6v6zm72-192v6h-6v-6zm0 12v6h-6v-6zm0 12v6h-6v-6zm0 12v6h-6v-6zm0 12v6h-6v-6zm0 12v6h-6v-6zm-12-60v6h-6v-6zm0 12v6h-6v-6zm0 12v6h-6v-6zm0 12v6h-6v-6zm0 12v6h-6v-6zm0 12v6h-6v-6zm-12-60v6h-6v-6zm-12 0v6h-6v-6zm-12 0v6h-6v-6zm-12 0v6h-6v-6zm36 12v6h-6v-6zm-12 0v6h-6v-6z"/><path d="M149.5 11.5v6h-6v-6zm-12 0v6h-6v-6zm54-6v6h-6v-6zm-12 0v6h-6v-6z"/><path d="M167.5 5.5v6h-6v-6zm-12 0v6h-6v-6zm-12 0v6h-6v-6zm48 12v6h-6v-6zm0 12v6h-6v-6zm0 12v6h-6v-6zm0 12v6h-6v-6zm-192 72v-6h6v6zm0-12v-6h6v6zm0-12v-6h6v6zm0-12v-6h6v6zm12 36v-6h6v6z"/><path d="M11.5 113.5v-6h6v6zm0-12v-6h6v6zm0-12v-6h6v6zm-6 42v-6h6v6z"/><path d="M5.5 119.5v-6h6v6zm0-12v-6h6v6zm0-12v-6h6v6zm-6-24h6v6h-6zm12 0h6v6h-6z"/><path d="M5.5 65.5h6v6h-6zm0 12h6v6h-6zm174 48v-6h6v6zm0-12v-6h6v6zm0-12v-6h6v6zm0-12v-6h6v6zm12 36v-6h6v6zm0-12v-6h6v6z"/><path d="M191.5 101.5v-6h6v6zm0-12v-6h6v6zm-6 42v-6h6v6zm0-12v-6h6v6z"/><path d="M185.5 107.5v-6h6v6zm0-12v-6h6v6zm-6-24h6v6h-6zm12 0h6v6h-6z"/><path d="M185.5 65.5h6v6h-6zm0 12h6v6h-6zm-114-78h6v6h-6zm12 0h6v6h-6zm12 0h6v6h-6zm12 0h6v6h-6zm12 0h6v6h-6zm-48 12h6v6h-6zm12 0h6v6h-6zm12 0h6v6h-6zm12 0h6v6h-6zm12 0h6v6h-6z"/><path d="M65.5 5.5h6v6h-6zm12 0h6v6h-6zm12 0h6v6h-6zm12 0h6v6h-6zm12 0h6v6h-6zm12 0h6v6h-6z"/></g></svg>